<svg width="16" height="16" viewBox="0 0 16 16" fill="none" xmlns="http://www.w3.org/2000/svg">
<path d="M15.7825 14.2176L13 11.4576C14.0801 10.1109 14.6031 8.40152 14.4616 6.68103C14.3201 4.96053 13.5247 3.35964 12.2391 2.20753C10.9535 1.05543 9.27534 0.439683 7.54968 0.486903C5.82402 0.534124 4.18203 1.24072 2.96135 2.46141C1.74066 3.68209 1.03406 5.32408 0.986842 7.04974C0.939622 8.77541 1.55537 10.4536 2.70747 11.7392C3.85958 13.0248 5.46047 13.8201 7.18096 13.9617C8.90146 14.1032 10.6108 13.5801 11.9575 12.5001L14.7175 15.2601C14.7872 15.3303 14.8702 15.3861 14.9616 15.4242C15.053 15.4623 15.151 15.4819 15.25 15.4819C15.349 15.4819 15.447 15.4623 15.5384 15.4242C15.6298 15.3861 15.7128 15.3303 15.7825 15.2601C15.9177 15.1202 15.9932 14.9333 15.9932 14.7388C15.9932 14.5443 15.9177 14.3574 15.7825 14.2176ZM7.74999 12.5001C6.71164 12.5001 5.6966 12.1921 4.83325 11.6153C3.96989 11.0384 3.29698 10.2185 2.89962 9.25914C2.50226 8.29983 2.39829 7.24423 2.60087 6.22583C2.80344 5.20743 3.30345 4.27197 4.03768 3.53774C4.7719 2.80351 5.70737 2.3035 6.72577 2.10093C7.74417 1.89836 8.79977 2.00232 9.75908 2.39968C10.7184 2.79704 11.5383 3.46995 12.1152 4.33331C12.6921 5.19666 13 6.2117 13 7.25005C13 8.64244 12.4469 9.97779 11.4623 10.9624C10.4777 11.9469 9.14238 12.5001 7.74999 12.5001Z" fill="white"/>
</svg>
